<svg width="97" height="98" viewBox="0 0 97 98" fill="none" xmlns="http://www.w3.org/2000/svg">
<path fill-rule="evenodd" clip-rule="evenodd" d="M48.5 97.5C75.286 97.5 97 75.786 97 49C97 22.2142 75.286 0.5 48.5 0.5C21.714 0.5 0 22.2142 0 49C0 75.786 21.714 97.5 48.5 97.5ZM48.386 88.166C70.08 88.166 87.666 70.754 87.666 49.275C87.666 27.7963 70.08 10.3842 48.386 10.3842C26.693 10.3842 9.10599 27.7963 9.10599 49.275C9.10599 70.754 26.693 88.166 48.386 88.166Z" fill="#2382F7"/>
<path d="M68.8139 36.9971C68.5359 36.6976 68.2049 36.4598 67.8409 36.2976C67.4769 36.1353 67.0859 36.0518 66.6919 36.0518C66.2969 36.0518 65.9059 36.1353 65.5419 36.2976C65.1779 36.4598 64.8469 36.6976 64.5699 36.9971L42.3039 60.839L32.9499 50.804C32.6609 50.506 32.3209 50.272 31.9469 50.114C31.5739 49.957 31.1759 49.88 30.7749 49.887C30.3739 49.895 29.9779 49.987 29.6099 50.158C29.2419 50.329 28.9099 50.575 28.6309 50.884C28.3519 51.192 28.1329 51.556 27.9859 51.956C27.8389 52.355 27.7669 52.781 27.7739 53.21C27.7809 53.638 27.8669 54.062 28.0269 54.455C28.1859 54.848 28.4169 55.204 28.7059 55.502L40.1819 67.7749C40.4599 68.0739 40.7909 68.312 41.1549 68.474C41.5189 68.637 41.9099 68.72 42.3039 68.72C42.6989 68.72 43.0889 68.637 43.4529 68.474C43.8179 68.312 44.1479 68.0739 44.4259 67.7749L68.8139 41.695C69.1169 41.396 69.3589 41.033 69.5249 40.628C69.6899 40.224 69.7759 39.788 69.7759 39.346C69.7759 38.905 69.6899 38.468 69.5249 38.064C69.3589 37.66 69.1169 37.2964 68.8139 36.9971Z" fill="#2382F7"/>
</svg>
