<svg xmlns="http://www.w3.org/2000/svg" width="100" height="23" viewBox="0 0 100 23" fill="none">
    <path d="M13.4583 6.06397C28.9087 3.44152 52.5705 0.721955 65.4043 0.0937839C70.4265 -0.152036 78.0311 0.116376 78.0309 0.53959C78.0309 0.598401 75.6755 0.649843 72.7971 0.653849C67.3531 0.661381 64.4619 0.806553 56.6879 1.46229C42.5456 2.65501 22.9177 5.19735 11.0149 7.378C6.23051 8.25455 5.49234 8.46353 7.61277 8.34078C14.7968 7.92509 26.7956 7.52416 39.5592 7.27305C53.1983 7.0048 93.6827 6.98988 94.6838 7.25269C95.6696 7.51165 95.6821 8.04976 94.7072 8.26818C94.3089 8.35744 89.568 8.49959 84.1716 8.5842C65.531 8.87601 53.6844 9.41282 39.6951 10.5996C25.9897 11.7622 11.2617 13.5966 4.62204 14.968C2.3692 15.4333 2.34038 15.4455 3.48257 15.4574C4.12666 15.464 9.63232 15.1481 15.7174 14.7552C37.9923 13.3174 52.5488 12.6566 70.554 12.2657C82.8902 11.998 93.7504 12.1297 97.5372 12.5931C99.9961 12.8939 99.9137 13.6515 97.392 13.9248C96.9005 13.978 92.6794 14.1316 88.012 14.2661C70.52 14.7702 58.083 15.4938 43.7734 16.8395C29.3162 18.1991 15.5874 20.0813 7.07879 21.8702C2.07448 22.9223 2.0114 22.6478 6.93305 21.2335C12.4333 19.653 24.9239 17.8266 40.7993 16.2818C56.0351 14.7994 69.9553 13.9858 87.8187 13.5342C91.7814 13.4341 95.1267 13.2955 95.2523 13.2262C95.6949 12.983 87.3018 12.8606 76.9433 12.9591C57.8521 13.141 38.6076 13.9514 13.5942 15.6268C1.66502 16.4259 0 16.4285 0 15.6489C0 15.1625 0.908639 14.8315 4.01138 14.1874C15.8982 11.7194 42.4352 9.08401 63.7569 8.25392C73.6522 7.86869 73.8259 7.82157 65.1163 7.88583C38.5652 8.08166 26.1431 8.32266 12.3881 8.90853C4.76777 9.23319 3.42629 9.22133 3.1699 8.82776C2.71721 8.13228 5.19517 7.46662 13.4583 6.06397Z" fill="black"/>
    </svg>