<svg xmlns="http://www.w3.org/2000/svg" viewBox="0 0 850.68 131.86"><defs><style>.cls-1{fill:#1851ef;}.cls-2{fill:#18181f;}</style></defs><g id="Layer_2" data-name="Layer 2"><g id="Layer_1-2" data-name="Layer 1"><path class="cls-1" d="M212.14,85h-32.8l-5.43,15.69H156.57l29.61-82.47h19.24L235,100.71H217.57Zm-4.48-13.21L195.74,37.35,183.82,71.81Z"/><path class="cls-1" d="M257.16,18.36v82.35H240.65V18.36Z"/><path class="cls-2" d="M346.53,73H298.75q.58,7.07,4.95,11.09a15.3,15.3,0,0,0,10.74,4q9.21,0,13.1-7.91h17.81A29.75,29.75,0,0,1,334.5,95.7q-8,6.08-19.71,6.07a34.13,34.13,0,0,1-16.93-4.18,29.57,29.57,0,0,1-11.68-11.86A36.35,36.35,0,0,1,282,68a37.09,37.09,0,0,1,4.13-17.82,28.82,28.82,0,0,1,11.57-11.79,37.12,37.12,0,0,1,33.8-.12,28.23,28.23,0,0,1,11.44,11.38A34.4,34.4,0,0,1,347,66.61,38.53,38.53,0,0,1,346.53,73ZM329.9,61.89a13.11,13.11,0,0,0-4.61-10.2,16.28,16.28,0,0,0-11-3.84A15,15,0,0,0,304,51.57a16.31,16.31,0,0,0-5.13,10.32Z"/><path class="cls-2" d="M372.25,13.4v87.31H355.73V13.4Z"/><path class="cls-2" d="M445.52,73H397.74q.58,7.07,4.95,11.09a15.3,15.3,0,0,0,10.74,4q9.19,0,13.09-7.91h17.82A29.81,29.81,0,0,1,433.49,95.7q-8,6.08-19.71,6.07a34.13,34.13,0,0,1-16.93-4.18,29.57,29.57,0,0,1-11.68-11.86A36.35,36.35,0,0,1,381,68a37.09,37.09,0,0,1,4.13-17.82,28.8,28.8,0,0,1,11.56-11.79,37.14,37.14,0,0,1,33.81-.12,28.23,28.23,0,0,1,11.44,11.38A34.4,34.4,0,0,1,446,66.61,39.65,39.65,0,0,1,445.52,73Zm-16.64-11.1a13.1,13.1,0,0,0-4.6-10.2,16.29,16.29,0,0,0-11-3.84A15,15,0,0,0,403,51.57a16.32,16.32,0,0,0-5.14,10.32Z"/><path class="cls-2" d="M480,37.29a26.7,26.7,0,0,1,12.8-3A28.5,28.5,0,0,1,508,38.42a29,29,0,0,1,10.74,11.73,37.84,37.84,0,0,1,3.95,17.64,38.52,38.52,0,0,1-3.95,17.76,29.8,29.8,0,0,1-10.74,12,28,28,0,0,1-15.16,4.24,26.32,26.32,0,0,1-12.68-3,27.08,27.08,0,0,1-8.91-7.43v40.47H454.72V35.35h16.52v9.44A25.07,25.07,0,0,1,480,37.29Zm23.36,20.3A16.67,16.67,0,0,0,497,51a17.11,17.11,0,0,0-8.55-2.24A16.44,16.44,0,0,0,480,51.1a17,17,0,0,0-6.37,6.66A20.93,20.93,0,0,0,471.24,68a20.84,20.84,0,0,0,2.42,10.26A16.94,16.94,0,0,0,480,85a16.53,16.53,0,0,0,8.44,2.3A16.35,16.35,0,0,0,497,84.9a17.42,17.42,0,0,0,6.37-6.72,21.14,21.14,0,0,0,2.42-10.39A20.52,20.52,0,0,0,503.39,57.59Z"/><path class="cls-2" d="M581.44,37.65a22.33,22.33,0,0,1,9,9.56,32.69,32.69,0,0,1,3.25,15.16v38.34H577.19V64.61q0-7.78-3.89-12t-10.62-4.19q-6.84,0-10.8,4.19t-4,12v36.1H531.41V13.4h16.52V43.49a21.65,21.65,0,0,1,8.49-6.67,28.2,28.2,0,0,1,11.8-2.42A26.59,26.59,0,0,1,581.44,37.65Z"/><path class="cls-2" d="M605.8,50.21a28.94,28.94,0,0,1,10.74-11.79,28.5,28.5,0,0,1,15.16-4.13,26.61,26.61,0,0,1,12.8,3,25.84,25.84,0,0,1,8.79,7.43V35.35h16.64v65.36H653.29V91.16a24.59,24.59,0,0,1-8.79,7.6,26.85,26.85,0,0,1-12.92,3,27.76,27.76,0,0,1-15-4.24,29.8,29.8,0,0,1-10.74-12,38.39,38.39,0,0,1-3.95-17.76A37.81,37.81,0,0,1,605.8,50.21Zm45.13,7.5a16.63,16.63,0,0,0-6.37-6.61A17,17,0,0,0,636,48.8a16.57,16.57,0,0,0-14.81,8.79,20.52,20.52,0,0,0-2.42,10.2,21.22,21.22,0,0,0,2.42,10.33,17.32,17.32,0,0,0,6.37,6.78A16.12,16.12,0,0,0,636,87.26a17.09,17.09,0,0,0,8.61-2.3,16.57,16.57,0,0,0,6.37-6.61A21.21,21.21,0,0,0,653.29,68,21.21,21.21,0,0,0,650.93,57.71Z"/><path class="cls-2" d="M737.88,41.78q7.2,7.36,7.2,20.59v38.34H728.56V64.61q0-7.78-3.89-12c-2.6-2.79-6.13-4.19-10.62-4.19s-8.16,1.4-10.79,4.19-4,6.79-4,12v36.1H682.79V35.35H699.3v8.14a23,23,0,0,1,8.44-6.67A26.14,26.14,0,0,1,719,34.4Q730.68,34.4,737.88,41.78Z"/><path class="cls-2" d="M776.7,48.92V80.54q0,3.3,1.59,4.78c1.07,1,2.85,1.47,5.37,1.47h7.67v13.92H781q-20.88,0-20.88-20.29V48.92h-7.79V35.35h7.79V19.18H776.7V35.35h14.63V48.92Z"/><path class="cls-2" d="M810.56,98.88A25.4,25.4,0,0,1,800.47,91a20,20,0,0,1-4.07-11H813a9,9,0,0,0,3.72,6.26,12.91,12.91,0,0,0,8.08,2.47,12.54,12.54,0,0,0,7.37-1.88,5.72,5.72,0,0,0,2.66-4.84,5.11,5.11,0,0,0-3.25-4.78,61.19,61.19,0,0,0-10.32-3.48,87.34,87.34,0,0,1-12-3.66,20.68,20.68,0,0,1-8-5.78q-3.36-3.89-3.36-10.5A17,17,0,0,1,801.06,44a21,21,0,0,1,9-7.08,33.64,33.64,0,0,1,13.75-2.59q11.67,0,18.64,5.84t7.67,15.75H834.28a8.58,8.58,0,0,0-3.25-6.2A14.64,14.64,0,0,0,816.4,49,5.29,5.29,0,0,0,814,53.64a5.4,5.4,0,0,0,3.31,5,51.25,51.25,0,0,0,10.26,3.48,86.51,86.51,0,0,1,11.68,3.66,20.66,20.66,0,0,1,8,5.84c2.24,2.63,3.4,6.12,3.48,10.44a17.35,17.35,0,0,1-3.13,10.15,20.58,20.58,0,0,1-9,7A34,34,0,0,1,825,101.77,34.45,34.45,0,0,1,810.56,98.88Z"/><path class="cls-1" d="M92,0H56.3V35.72A23.78,23.78,0,0,0,80.06,59.5H96.73V46.09h-14A13.06,13.06,0,0,1,69.69,33V13.41H89.32a13.06,13.06,0,0,1,13.06,13.06V90.35a10.2,10.2,0,0,0,10.2,10.21h3.2V23.78A23.78,23.78,0,0,0,92,0Z"/><path class="cls-1" d="M117.94,87.16v13.41h4.79A8.61,8.61,0,0,0,131.34,92v-4.8Z"/><path class="cls-1" d="M51.29,32.31V18.13H29.91A30,30,0,0,0,0,48.05v52.52H14.18V48.05A15.75,15.75,0,0,1,29.91,32.31Z"/><path class="cls-1" d="M56.29,68.81a31.79,31.79,0,0,0-31.75,31.76H38.72a17.58,17.58,0,1,1,35.15,0H88.05A31.8,31.8,0,0,0,56.29,68.81Z"/></g></g></svg>