<svg width="95" height="21" viewBox="0 0 95 21" fill="none" xmlns="http://www.w3.org/2000/svg">
<g clip-path="url(#clip0_20320_286887)">
<path fill-rule="evenodd" clip-rule="evenodd" d="M1.82075 6.05827L8.67248 2.10242L15.5242 6.05827V13.97L8.67248 17.9258L1.82075 13.97V6.05827ZM8.67248 0L17.345 5.00706V15.0212L8.67248 20.0282L0 15.0212V5.00706L8.67248 0ZM4.97505 7.87901L8.67315 5.74391L12.3713 7.87901V12.1492L8.67315 14.2843L4.97505 12.1492V7.87901ZM8.67315 3.64149L14.192 6.8278V13.2004L8.67315 16.3867L3.1543 13.2004V6.8278L8.67315 3.64149Z" fill="black"/>
</g>
<path d="M91.0413 14.2281C90.5373 14.2281 90.038 14.1418 89.5433 13.9691C89.0487 13.7964 88.6217 13.5211 88.2623 13.1431C87.903 12.7651 87.672 12.2681 87.5693 11.6521H89.8793C89.94 11.8854 90.0473 12.0581 90.2013 12.1701C90.3553 12.2821 90.5117 12.3544 90.6703 12.3871C90.829 12.4198 90.948 12.4361 91.0273 12.4361C91.3307 12.4361 91.5757 12.4011 91.7623 12.3311C91.949 12.2564 92.0423 12.1468 92.0423 12.0021C92.0423 11.8668 91.9793 11.7618 91.8533 11.6871C91.7273 11.6078 91.501 11.5448 91.1743 11.4981L90.1033 11.3301C89.4127 11.2041 88.855 10.9661 88.4303 10.6161C88.0057 10.2661 87.7887 9.76678 87.7793 9.11811C87.7747 8.67011 87.8983 8.26411 88.1503 7.90011C88.407 7.53611 88.7803 7.24678 89.2703 7.03211C89.765 6.81745 90.3647 6.71011 91.0693 6.71011C92.0587 6.71011 92.8427 6.92478 93.4213 7.35411C94 7.78345 94.2893 8.36678 94.2893 9.10411H92.0703C92.019 8.88478 91.8953 8.72378 91.6993 8.62111C91.5033 8.51378 91.2817 8.46011 91.0343 8.46011C90.7823 8.46011 90.5677 8.49745 90.3903 8.57211C90.2177 8.64678 90.1313 8.75411 90.1313 8.89411C90.1313 9.02011 90.2153 9.12278 90.3833 9.20211C90.5513 9.27678 90.829 9.34678 91.2163 9.41211L92.1473 9.58011C92.614 9.69211 92.9897 9.84378 93.2743 10.0351C93.5637 10.2264 93.783 10.4341 93.9323 10.6581C94.0863 10.8774 94.1913 11.0944 94.2473 11.3091C94.3033 11.5191 94.3313 11.6988 94.3313 11.8481C94.3313 12.3661 94.1843 12.8024 93.8903 13.1571C93.601 13.5071 93.2067 13.7731 92.7073 13.9551C92.2127 14.1371 91.6573 14.2281 91.0413 14.2281Z" fill="black"/>
<path d="M81.9863 14.0881V6.85011H84.6183V8.85211C84.7303 8.46478 84.889 8.11011 85.0943 7.78811C85.3043 7.46145 85.5703 7.20011 85.8923 7.00411C86.2143 6.80811 86.5993 6.71011 87.0473 6.71011C87.08 6.71011 87.1057 6.71011 87.1243 6.71011C87.143 6.71011 87.1523 6.71011 87.1523 6.71011V9.28611C87.1383 9.28145 87.1243 9.27911 87.1103 9.27911C87.101 9.27911 87.0847 9.27678 87.0613 9.27211C86.5527 9.22078 86.142 9.22545 85.8293 9.28611C85.5213 9.34678 85.2857 9.44711 85.1223 9.58711C84.959 9.72245 84.8493 9.88111 84.7933 10.0631C84.7373 10.2404 84.7093 10.4248 84.7093 10.6161V14.0881H81.9863Z" fill="black"/>
<path d="M76.3058 11.0921C76.3012 11.3814 76.3455 11.6171 76.4388 11.7991C76.5322 11.9811 76.6582 12.1141 76.8168 12.1981C76.9802 12.2821 77.1598 12.3241 77.3558 12.3241C77.6032 12.3241 77.8248 12.2774 78.0208 12.1841C78.2215 12.0908 78.3778 11.9041 78.4898 11.6241H80.8978C80.8232 12.1608 80.6108 12.6251 80.2608 13.0171C79.9108 13.4044 79.4838 13.7031 78.9798 13.9131C78.4805 14.1231 77.9625 14.2281 77.4258 14.2281C76.6745 14.2281 76.0118 14.0764 75.4378 13.7731C74.8685 13.4651 74.4252 13.0358 74.1078 12.4851C73.7905 11.9344 73.6318 11.2928 73.6318 10.5601C73.6318 9.86945 73.7765 9.23245 74.0658 8.64911C74.3598 8.06578 74.7798 7.59678 75.3258 7.24211C75.8765 6.88745 76.5392 6.71011 77.3138 6.71011C78.1025 6.71011 78.7605 6.87345 79.2878 7.20011C79.8152 7.52678 80.2095 7.97478 80.4708 8.54411C80.7368 9.10878 80.8698 9.74811 80.8698 10.4621V11.0921H76.3058ZM76.2918 9.56611H78.3568C78.3568 9.38411 78.3172 9.21611 78.2378 9.06211C78.1585 8.90345 78.0418 8.77745 77.8878 8.68411C77.7338 8.59078 77.5425 8.54411 77.3138 8.54411C77.1272 8.54411 76.9568 8.59078 76.8028 8.68411C76.6488 8.77745 76.5252 8.90345 76.4318 9.06211C76.3385 9.21611 76.2918 9.38411 76.2918 9.56611Z" fill="black"/>
<path d="M68.1051 14.2281C67.1064 14.2281 66.3387 13.8828 65.8021 13.1921C65.2654 12.4968 64.9971 11.5728 64.9971 10.4201C64.9971 9.65946 65.1067 9.00146 65.3261 8.44613C65.5501 7.89079 65.8721 7.46379 66.2921 7.16513C66.7121 6.86179 67.2184 6.71013 67.8111 6.71013C67.9931 6.71013 68.1774 6.72646 68.3641 6.75913C68.5507 6.79179 68.7327 6.84546 68.9101 6.92013C69.0921 6.99013 69.2601 7.08813 69.4141 7.21413C69.5681 7.33546 69.7011 7.48946 69.8131 7.67613V3.68613H72.5431V14.0881H70.6181L70.2961 12.6041C70.2121 12.8561 70.1047 13.0825 69.9741 13.2831C69.8481 13.4838 69.6941 13.6541 69.5121 13.7941C69.3347 13.9341 69.1294 14.0415 68.8961 14.1161C68.6627 14.1908 68.3991 14.2281 68.1051 14.2281ZM68.7491 12.3241C69.0664 12.3241 69.3231 12.1865 69.5191 11.9111C69.7151 11.6311 69.8131 11.1341 69.8131 10.4201C69.8131 9.99079 69.7687 9.64546 69.6801 9.38413C69.5914 9.11813 69.4677 8.92679 69.3091 8.81013C69.1504 8.68879 68.9637 8.62813 68.7491 8.62813C68.4411 8.62813 68.1774 8.75879 67.9581 9.02013C67.7387 9.28146 67.6291 9.74813 67.6291 10.4201C67.6291 11.1341 67.7387 11.6311 67.9581 11.9111C68.1774 12.1865 68.4411 12.3241 68.7491 12.3241Z" fill="black"/>
<path d="M63.8781 6.85013V14.0881H61.2881V6.85013H63.8781ZM63.8781 3.96613V6.26213H61.2881V3.96613H63.8781Z" fill="black"/>
<path d="M52.6465 16.3421V6.85011H55.3835V7.69011C55.5188 7.50345 55.6728 7.34711 55.8455 7.22111C56.0228 7.09511 56.2071 6.99478 56.3985 6.92011C56.5898 6.84545 56.7812 6.79178 56.9725 6.75911C57.1638 6.72645 57.3435 6.71011 57.5115 6.71011C58.0155 6.71011 58.4682 6.84311 58.8695 7.10911C59.2708 7.37511 59.5882 7.78578 59.8215 8.34111C60.0548 8.89178 60.1715 9.59411 60.1715 10.4481C60.1715 11.3674 60.0315 12.1048 59.7515 12.6601C59.4762 13.2108 59.1122 13.6098 58.6595 13.8571C58.2115 14.1044 57.7308 14.2281 57.2175 14.2281C57.0682 14.2281 56.9095 14.2094 56.7415 14.1721C56.5782 14.1348 56.4125 14.0764 56.2445 13.9971C56.0812 13.9131 55.9248 13.8081 55.7755 13.6821C55.6262 13.5514 55.4908 13.3928 55.3695 13.2061V16.3421H52.6465ZM56.5035 12.2821C56.8068 12.2821 57.0728 12.1398 57.3015 11.8551C57.5348 11.5658 57.6515 11.0968 57.6515 10.4481C57.6515 9.86011 57.5348 9.40978 57.3015 9.09711C57.0728 8.78445 56.8068 8.62811 56.5035 8.62811C56.1068 8.62811 55.8175 8.81011 55.6355 9.17411C55.4581 9.53345 55.3695 9.95811 55.3695 10.4481C55.3695 10.7421 55.4092 11.0314 55.4885 11.3161C55.5678 11.5961 55.6892 11.8271 55.8525 12.0091C56.0205 12.1911 56.2375 12.2821 56.5035 12.2821Z" fill="black"/>
<path d="M48.2757 14.2281C47.7717 14.2281 47.2724 14.1418 46.7777 13.9691C46.283 13.7964 45.856 13.5211 45.4967 13.1431C45.1374 12.7651 44.9064 12.2681 44.8037 11.6521H47.1137C47.1744 11.8854 47.2817 12.0581 47.4357 12.1701C47.5897 12.2821 47.746 12.3544 47.9047 12.3871C48.0634 12.4198 48.1824 12.4361 48.2617 12.4361C48.565 12.4361 48.81 12.4011 48.9967 12.3311C49.1834 12.2564 49.2767 12.1468 49.2767 12.0021C49.2767 11.8668 49.2137 11.7618 49.0877 11.6871C48.9617 11.6078 48.7354 11.5448 48.4087 11.4981L47.3377 11.3301C46.647 11.2041 46.0894 10.9661 45.6647 10.6161C45.24 10.2661 45.023 9.76678 45.0137 9.11811C45.009 8.67011 45.1327 8.26411 45.3847 7.90011C45.6414 7.53611 46.0147 7.24678 46.5047 7.03211C46.9994 6.81745 47.599 6.71011 48.3037 6.71011C49.293 6.71011 50.077 6.92478 50.6557 7.35411C51.2344 7.78345 51.5237 8.36678 51.5237 9.10411H49.3047C49.2534 8.88478 49.1297 8.72378 48.9337 8.62111C48.7377 8.51378 48.516 8.46011 48.2687 8.46011C48.0167 8.46011 47.802 8.49745 47.6247 8.57211C47.452 8.64678 47.3657 8.75411 47.3657 8.89411C47.3657 9.02011 47.4497 9.12278 47.6177 9.20211C47.7857 9.27678 48.0634 9.34678 48.4507 9.41211L49.3817 9.58011C49.8484 9.69211 50.224 9.84378 50.5087 10.0351C50.798 10.2264 51.0174 10.4341 51.1667 10.6581C51.3207 10.8774 51.4257 11.0944 51.4817 11.3091C51.5377 11.5191 51.5657 11.6988 51.5657 11.8481C51.5657 12.3661 51.4187 12.8024 51.1247 13.1571C50.8354 13.5071 50.441 13.7731 49.9417 13.9551C49.447 14.1371 48.8917 14.2281 48.2757 14.2281Z" fill="black"/>
<path d="M38.0576 3.96613H40.7806V14.0881H38.0576V3.96613Z" fill="url(#paint0_linear_20320_286887)"/>
<path d="M26.9453 14.0881L30.5293 3.96613H33.3153L36.8993 14.0881H34.2113L33.5393 12.1281H30.3473L29.6613 14.0881H26.9453ZM30.9213 9.80413H32.9233L31.9293 6.57013L30.9213 9.80413Z" fill="url(#paint1_linear_20320_286887)"/>
<defs>
<linearGradient id="paint0_linear_20320_286887" x1="31.4357" y1="4.08813" x2="134.963" y2="21.0203" gradientUnits="userSpaceOnUse">
<stop stop-color="#1851EF"/>
<stop offset="1" stop-color="#030F30"/>
</linearGradient>
<linearGradient id="paint1_linear_20320_286887" x1="31.4353" y1="4.08813" x2="134.963" y2="21.0203" gradientUnits="userSpaceOnUse">
<stop stop-color="#1851EF"/>
<stop offset="1" stop-color="#030F30"/>
</linearGradient>
<clipPath id="clip0_20320_286887">
<rect width="19.9454" height="20.0282" fill="white"/>
</clipPath>
</defs>
</svg>
