<svg width="19" height="17" viewBox="0 0 19 17" fill="none" xmlns="http://www.w3.org/2000/svg">
<path d="M11.8137 0H7.28613V4.53014C7.28613 5.32956 7.60353 6.09627 8.16856 6.66179C8.7336 7.2273 9.50004 7.54534 10.2995 7.54601H12.4136V5.8453H10.6381C10.4205 5.84497 10.205 5.80176 10.0041 5.71813C9.80323 5.63451 9.62077 5.51211 9.46718 5.35794C9.3136 5.20376 9.1919 5.02084 9.10905 4.81961C9.02619 4.61838 8.9838 4.4028 8.9843 4.18518V1.70071H11.4739C11.9131 1.70071 12.3344 1.87521 12.645 2.18583C12.9557 2.49645 13.1302 2.91774 13.1302 3.35702V11.4585C13.13 11.6285 13.1633 11.7969 13.2283 11.9539C13.2932 12.111 13.3885 12.2538 13.5086 12.3741C13.6287 12.4943 13.7714 12.5897 13.9284 12.6548C14.0855 12.7199 14.2538 12.7534 14.4238 12.7534H14.8296V3.01587C14.8296 2.61982 14.7516 2.22765 14.6 1.86174C14.4485 1.49584 14.2263 1.16338 13.9463 0.883327C13.6662 0.603278 13.3338 0.381131 12.9679 0.229569C12.602 0.0780077 12.2098 0 11.8137 0Z" fill="black"/>
<path d="M14.4375 11.0537V12.7544H15.7111C15.9999 12.7544 16.2768 12.6401 16.4815 12.4364C16.6861 12.2327 16.8018 11.9563 16.8031 11.6675V11.0588L14.4375 11.0537Z" fill="black"/>
<path d="M6.65029 4.09719V2.29883H3.9388C2.93347 2.30184 1.97018 2.70263 1.25942 3.41363C0.548653 4.12464 0.148184 5.08805 0.145508 6.09339L0.145508 12.7542H1.94387V6.09339C1.9442 5.56429 2.15445 5.05693 2.52846 4.68268C2.90248 4.30843 3.4097 4.09786 3.9388 4.09719H6.65029Z" fill="black"/>
<path d="M7.28446 8.72559C6.21672 8.72693 5.19312 9.15177 4.43823 9.9069C3.68334 10.662 3.25882 11.6858 3.25781 12.7535H5.05617C5.04908 12.4563 5.10149 12.1607 5.21032 11.8841C5.31915 11.6075 5.4822 11.3554 5.68987 11.1427C5.89755 10.93 6.14566 10.761 6.41962 10.6456C6.69357 10.5302 6.98783 10.4708 7.2851 10.4708C7.58236 10.4708 7.87663 10.5302 8.15058 10.6456C8.42453 10.761 8.67265 10.93 8.88032 11.1427C9.088 11.3554 9.25105 11.6075 9.35987 11.8841C9.4687 12.1607 9.52111 12.4563 9.51402 12.7535H11.3124C11.311 11.6856 10.8862 10.6619 10.1312 9.90682C9.37606 9.15173 8.35232 8.72693 7.28446 8.72559Z" fill="black"/>
</svg>
