<svg width="26" height="26" viewBox="0 0 26 26" fill="none" xmlns="http://www.w3.org/2000/svg">
<path d="M22.6763 11.8034V11.8316C22.5951 11.8007 22.5124 11.7742 22.4285 11.7521C22.3641 11.7352 22.2988 11.7216 22.233 11.7114C22.115 11.6907 21.9953 11.6806 21.8755 11.6811C21.2954 11.6813 20.7392 11.912 20.3291 12.3223C19.919 12.7326 19.6886 13.2889 19.6886 13.869C19.6886 14.0614 19.6834 14.3217 19.6781 14.4168C19.5954 15.7366 19.0126 16.9753 18.0484 17.8804C17.0843 18.7855 15.8113 19.2889 14.4889 19.2882H3.91082C3.82093 19.2881 3.73331 19.26 3.66011 19.2079C3.58692 19.1557 3.53178 19.082 3.50236 18.9971C3.47294 18.9122 3.47069 18.8202 3.49593 18.7339C3.52117 18.6476 3.57264 18.5714 3.64321 18.5157L4.46905 17.8717L4.78266 17.625L7.8665 15.229C8.001 15.1244 8.16653 15.0676 8.33692 15.0676C8.50731 15.0676 8.67283 15.1244 8.80733 15.229L9.52446 15.7904C9.65833 15.8957 9.82346 15.9535 9.9938 15.9547C10.1641 15.9558 10.33 15.9002 10.4653 15.7967L15.6022 11.8661L18.4582 9.68858L18.4854 9.66767C18.809 9.43276 19.1818 9.27442 19.5755 9.20461C19.9693 9.1348 20.3738 9.15533 20.7584 9.26466C21.1431 9.37399 21.4979 9.56926 21.7961 9.83574C22.0943 10.1022 22.328 10.4329 22.4797 10.8029C22.5132 10.8834 22.5414 10.965 22.5675 11.0486C22.6397 11.2937 22.6763 11.5479 22.6763 11.8034Z" stroke="black" stroke-width="1.25"/>
<path d="M16.254 8.51742L10.3487 13.0878C10.2416 13.1711 10.1097 13.2163 9.97396 13.2163C9.83822 13.2163 9.70635 13.1711 9.59919 13.0878L7.64331 11.5595L7.3297 11.3107L5.84841 10.1607L5.53479 9.91508L4.24481 8.9063L3.9312 8.65959L3.74617 8.51638C3.64542 8.43812 3.57166 8.33032 3.53523 8.20806C3.4988 8.0858 3.50152 7.95521 3.543 7.83457C3.58448 7.71393 3.66265 7.60928 3.76656 7.53528C3.87047 7.46128 3.99493 7.42163 4.1225 7.42188H15.8798C16.0074 7.42178 16.1319 7.46164 16.2358 7.53585C16.3396 7.61007 16.4177 7.71493 16.4589 7.83573C16.5002 7.95653 16.5026 8.08721 16.4659 8.20946C16.4291 8.33171 16.3551 8.4394 16.254 8.51742Z" stroke="black" stroke-width="1.25"/>
</svg>
